<?xml version="1.0" encoding="utf-8"?>
<!-- Generator: Adobe Illustrator 25.4.1, SVG Export Plug-In . SVG Version: 6.00 Build 0)  -->
<svg version="1.1" id="图层_1" xmlns="http://www.w3.org/2000/svg" xmlns:xlink="http://www.w3.org/1999/xlink" x="0px" y="0px"
	 viewBox="0 0 320 320" style="enable-background:new 0 0 320 320;" xml:space="preserve">
<style type="text/css">
	.st0{fill:#FCA104;}
	.st1{fill:#343458;}
</style>
<g id="XMLID_00000109030774923704412590000013995742991384337832_">
	<g>
		<polygon class="st0" points="181,207.7 181,227.4 176.5,223 172,218.6 172,203.3 172,188 176.5,188 181,188 		"/>
		<path class="st0" d="M197,204.7V228h-4.5H188v-23.5V181h-7.7h-7.7l4.4-4.5c6-6.1,8.8-6.1,15.2,0.2l4.8,4.7V204.7z"/>
		<path class="st0" d="M227.4,219l-4.4,4.5c-6,6.1-8.8,6.1-15.2-0.2l-4.8-4.7v-23.3V172h4.5h4.5v23.5V219h7.7H227.4z"/>
		<polygon class="st0" points="228,196.7 228,212 223.5,212 219,212 219,192.3 219,172.6 223.5,177 228,181.4 		"/>
		<polygon class="st0" points="228,96.5 228,101 223.5,101 219,101 219,96.5 219,92 223.5,92 228,92 		"/>
		<path class="st0" d="M212,140.2v7.8h-4.5H203v-8v-8h-3h-3v8v8h-4.5H188v-7.7v-7.7l4.7-4.8c6.1-6.2,8.3-6.2,14.5-0.1l4.8,4.7V140.2
			z"/>
		<polygon class="st0" points="212,96.5 212,101 207.5,101 203,101 203,96.5 203,92 207.5,92 212,92 		"/>
		<polygon class="st0" points="197,96.5 197,101 192.5,101 188,101 188,96.5 188,92 192.5,92 197,92 		"/>
		<polygon class="st0" points="181,96.5 181,101 176.5,101 172,101 172,96.5 172,92 176.5,92 181,92 		"/>
		<polygon class="st0" points="228,128 228,138.6 223.5,143 219,147.4 219,132.2 219,117 200,117 181,117 181,132.2 181,147.4 
			176.5,143 172,138.6 172,128.1 172,117.7 176.3,113 180.5,108.2 199.7,108.1 218.9,108 223.4,112.7 228,117.5 		"/>
		<path class="st1" d="M320,160v160H160H0V160V0h160h160V160z M228,212v-15.3v-15.3l-4.5-4.4l-4.5-4.4v19.7V212h4.5H228z M228,138.6
			V128v-10.5l-4.6-4.8l-4.5-4.7l-19.2,0.1l-19.2,0.1l-4.2,4.8l-4.3,4.7v10.4v10.5l4.5,4.4l4.5,4.4v-15.2V117h19h19v15.2v15.2
			l4.5-4.4L228,138.6z M228,101v-4.5V92h-4.5H219v4.5v4.5h4.5H228z M223,223.5l4.4-4.5h-7.7H212v-23.5V172h-4.5H203v23.3v23.3
			l4.8,4.7C214.2,229.6,217,229.6,223,223.5z M212,148v-7.8v-7.8l-4.8-4.7c-6.2-6.1-8.4-6.1-14.5,0.1l-4.7,4.8v7.7v7.7h4.5h4.5v-8
			v-8h3h3v8v8h4.5H212z M212,101v-4.5V92h-4.5H203v4.5v4.5h4.5H212z M197,228v-23.3v-23.3l-4.8-4.7c-6.4-6.3-9.2-6.3-15.2-0.2
			l-4.4,4.5h7.7h7.7v23.5V228h4.5H197z M197,101v-4.5V92h-4.5H188v4.5v4.5h4.5H197z M181,227.4v-19.7V188h-4.5H172v15.3v15.3
			l4.5,4.4L181,227.4z M181,101v-4.5V92h-4.5H172v4.5v4.5h4.5H181z M148,132v-4.5V123h-12.5H123v4.5v4.5h12.5H148z M148,117v-4.5
			V108h-12.5H123v4.5v4.5h12.5H148z M147.4,101l-8.8-9H128h-10.5l-4.7,4.6l-4.8,4.5v11V123h-3.5H101v-15.2V92.6L96.5,97l-4.5,4.4v11
			v11l4.2,4.3c5.8,5.9,9.5,5.9,16.1-0.2l4.7-4.3v-11.1V101h15.2H147.4z M143,143.5l4.4-4.5H120H92.6l4.4,4.5l4.4,4.5H120h18.6
			L143,143.5z"/>
		<polygon class="st0" points="148,127.5 148,132 135.5,132 123,132 123,127.5 123,123 135.5,123 148,123 		"/>
		<polygon class="st0" points="148,112.5 148,117 135.5,117 123,117 123,112.5 123,108 135.5,108 148,108 		"/>
		<path class="st0" d="M138.6,92l8.8,9h-15.2H117v11.1v11.1l-4.7,4.3c-6.6,6.1-10.3,6.1-16.1,0.2l-4.2-4.3v-11v-11l4.5-4.4l4.5-4.4
			v15.2V123h3.5h3.5v-10.9v-11l4.8-4.5l4.7-4.6H128H138.6z"/>
		<polygon class="st0" points="147.4,139 143,143.5 138.6,148 120,148 101.4,148 97,143.5 92.6,139 120,139 		"/>
	</g>
	<g>
	</g>
</g>
</svg>
